<svg width="2792" height="500" viewBox="0 0 2792 500" fill="none" xmlns="http://www.w3.org/2000/svg">
<path d="M285.883 398.942L43.8846 232.232C25.3087 219.435 -1.34337e-06 232.733 -2.32937e-06 255.29L-9.61651e-06 422C-1.02925e-05 437.464 12.536 450 28 450L269.999 450C297.482 450 308.516 414.533 285.883 398.942Z" fill="#27272A"/>
<ellipse cx="328" cy="280" rx="72" ry="72" transform="rotate(90 328 280)" fill="#27272A"/>
<rect x="400" y="50" width="128" height="400" rx="28" transform="rotate(90 400 50)" fill="#27272A"/>
<path d="M514.99 339.037C529.651 344.035 545.644 348.033 562.97 351.032C580.629 353.698 598.121 355.03 615.447 355.03C639.103 355.03 656.596 354.031 667.924 352.032C679.586 349.699 687.249 346.201 690.914 341.536C694.579 336.872 696.412 330.874 696.412 323.544C696.412 317.214 695.079 312.216 692.413 308.551C689.748 304.886 684.583 302.053 676.92 300.054C669.257 297.722 657.928 295.889 642.935 294.557L609.949 291.558C585.293 289.226 565.802 284.061 551.475 276.065C537.481 268.068 527.485 257.406 521.488 244.079C515.823 230.418 512.991 214.092 512.991 195.1C512.991 172.443 517.489 154.118 526.485 140.124C535.815 126.13 550.808 115.968 571.466 109.637C592.124 102.973 619.612 99.6415 653.93 99.6415C698.577 99.6415 735.395 105.472 764.382 117.134L762.883 185.104L761.383 187.103C728.398 175.442 693.913 169.611 657.928 169.611C640.602 169.611 627.275 170.611 617.946 172.61C608.616 174.276 602.119 177.108 598.454 181.106C594.789 185.104 592.957 190.769 592.957 198.099C592.957 205.429 594.123 210.926 596.455 214.591C599.121 218.257 604.285 221.089 611.948 223.088C619.612 224.754 630.773 226.42 645.434 228.086L676.92 231.584C703.575 234.583 724.066 239.914 738.393 247.577C752.72 255.24 762.549 265.569 767.88 278.564C773.545 291.225 776.377 306.718 776.377 325.043C776.377 347.367 771.546 366.026 761.883 381.019C752.554 395.679 737.227 406.675 715.903 414.005C694.579 421.335 666.091 425 630.44 425C607.117 425 586.126 423.834 567.468 421.502C548.809 418.836 530.65 415.338 512.991 411.006V340.537L514.99 339.037ZM906.531 425C875.878 425 854.054 416.837 841.06 400.511C828.065 384.184 821.568 360.861 821.568 330.541V177.108H901.533L902.033 311.05C902.033 326.043 904.699 336.705 910.03 343.036C915.361 349.033 926.189 352.032 942.515 352.032C958.175 352.032 968.671 349.366 974.002 344.035C979.666 338.371 982.665 328.875 982.998 315.548V177.108H1062.96V420.502H986.996L982.998 393.014H981.498C977.167 402.676 968.338 410.506 955.01 416.504C941.682 422.168 925.523 425 906.531 425ZM1369.72 288.06C1369.72 333.04 1360.55 367.192 1342.23 390.515C1323.9 413.505 1292.75 425 1248.77 425C1224.11 425 1201.12 424.167 1179.8 422.501C1158.81 420.502 1140.32 418.17 1124.32 415.504L1122.82 414.505V84.1482H1202.79V214.591H1204.79C1209.45 202.597 1217.12 192.934 1227.78 185.604C1238.77 178.274 1254.27 174.609 1274.26 174.609C1337.9 174.609 1369.72 212.426 1369.72 288.06ZM1202.79 296.556V355.03C1210.79 356.363 1220.11 357.03 1230.78 357.03C1246.44 357.03 1258.6 355.697 1267.26 353.031C1276.26 350.033 1282.59 344.368 1286.25 336.039C1289.92 327.709 1291.75 315.714 1291.75 300.054C1291.75 280.396 1288.92 265.903 1283.25 256.573C1277.59 247.244 1265.93 242.579 1248.27 242.579C1234.94 242.579 1223.95 246.744 1215.28 255.074C1206.95 263.07 1202.79 276.898 1202.79 296.556ZM1392.26 242.08V177.108H1427.74V164.613C1427.74 131.628 1435.41 107.971 1450.73 93.6441C1466.06 78.9838 1488.88 71.6537 1519.2 71.6537C1529.86 71.6537 1539.69 72.6532 1548.69 74.6524C1557.69 76.3183 1565.52 78.3174 1572.18 80.6498V136.625L1570.68 137.625C1564.68 136.959 1558.68 136.459 1552.69 136.126C1546.69 135.459 1541.03 135.126 1535.69 135.126C1524.37 135.126 1516.37 137.292 1511.71 141.623C1507.37 145.622 1505.21 151.952 1505.21 160.615V177.108H1572.18V242.08H1505.21V420.502H1427.74V242.08H1392.26ZM1692.32 420.502H1612.36V177.108H1677.33L1683.83 227.086H1685.33C1688.32 208.428 1695.49 195.1 1706.82 187.103C1718.14 178.774 1734.97 174.609 1757.29 174.609C1766.29 174.609 1774.45 175.109 1781.78 176.108C1789.11 176.775 1795.28 177.441 1800.28 178.107V256.073L1799.28 257.073C1793.94 255.74 1787.78 254.574 1780.78 253.575C1774.12 252.575 1766.46 252.075 1757.79 252.075C1745.47 252.075 1734.3 254.074 1724.31 258.073C1714.65 262.071 1706.98 269.901 1701.32 281.562C1695.99 292.891 1693.32 309.883 1693.32 332.54L1692.32 420.502ZM1927.86 174.609C1959.85 174.609 1985.67 177.941 2005.33 184.605C2024.99 191.268 2039.32 203.596 2048.31 221.588C2057.64 239.247 2062.31 264.903 2062.31 298.555V420.502H1989.84L1987.34 397.512H1985.84C1979.51 405.842 1969.68 412.505 1956.35 417.503C1943.02 422.501 1925.7 425 1904.37 425C1846.73 425 1817.91 398.012 1817.91 344.035C1817.91 321.045 1825.41 303.053 1840.4 290.059C1855.73 276.731 1879.72 270.067 1912.37 270.067H1986.34C1984.01 256.073 1978.01 246.744 1968.35 242.08C1958.68 237.082 1942.19 234.583 1918.87 234.583C1904.21 234.583 1889.71 235.749 1875.39 238.081C1861.39 240.08 1849.07 242.413 1838.4 245.078L1836.9 244.079L1837.4 186.104C1844.07 184.105 1852.56 182.272 1862.89 180.606C1873.22 178.607 1884.05 177.108 1895.38 176.108C1907.04 175.109 1917.87 174.609 1927.86 174.609ZM1924.87 366.026C1945.52 366.026 1961.02 363.527 1971.35 358.529C1981.67 353.198 1987.01 344.868 1987.34 333.54V321.045H1930.86C1916.2 321.045 1905.87 323.211 1899.88 327.542C1894.21 331.541 1891.38 337.038 1891.38 344.035C1891.38 352.365 1894.38 358.196 1900.38 361.528C1906.37 364.526 1914.54 366.026 1924.87 366.026ZM2416.95 174.609C2441.6 174.609 2461.1 182.772 2475.42 199.098C2490.08 215.424 2497.41 243.745 2497.41 284.061V420.502H2417.45L2416.95 294.057C2416.95 277.731 2414.45 265.903 2409.45 258.572C2404.79 251.242 2395.46 247.577 2381.46 247.577C2367.47 247.577 2357.97 251.242 2352.98 258.572C2348.31 265.903 2345.98 277.731 2345.98 294.057V420.502H2266.01L2265.51 294.057C2265.51 277.731 2263.02 265.903 2258.02 258.572C2253.35 251.242 2244.02 247.577 2230.03 247.577C2216.04 247.577 2206.54 251.242 2201.54 258.572C2196.88 265.903 2194.55 277.731 2194.55 294.057V420.502H2114.58V177.108H2190.55L2194.55 221.588H2196.04C2200.38 206.928 2207.87 195.433 2218.53 187.103C2229.53 178.774 2245.02 174.609 2265.01 174.609C2285.01 174.609 2300.67 178.774 2311.99 187.103C2323.66 195.433 2331.15 206.928 2334.48 221.588H2335.98C2340.32 206.595 2348.64 195.1 2360.97 187.103C2373.63 178.774 2392.29 174.609 2416.95 174.609ZM2766.78 412.505C2757.46 415.837 2744.46 418.836 2727.8 421.502C2711.48 423.834 2691.98 425 2669.33 425C2640.67 425 2616.18 421.335 2595.86 414.005C2575.87 406.341 2560.71 393.514 2550.38 375.522C2540.05 357.196 2534.89 331.874 2534.89 299.555C2534.89 255.574 2544.88 223.754 2564.87 204.096C2585.2 184.438 2616.52 174.609 2658.83 174.609C2689.15 174.609 2712.97 178.94 2730.3 187.603C2747.96 196.266 2760.45 208.594 2767.78 224.587C2775.45 240.247 2779.28 258.906 2779.28 280.563C2779.28 286.893 2778.95 293.724 2778.28 301.054C2777.95 308.384 2777.11 315.548 2775.78 322.545L2773.78 324.544H2609.35C2611.69 339.204 2618.52 348.866 2629.84 353.531C2641.51 358.196 2660.33 360.528 2686.32 360.528C2703.65 360.528 2717.97 360.195 2729.3 359.528C2740.96 358.529 2752.79 357.196 2764.79 355.53L2766.78 357.03V412.505ZM2709.81 272.067C2709.81 264.07 2708.48 257.24 2705.81 251.575C2703.48 245.578 2698.65 241.08 2691.32 238.081C2683.99 234.749 2673.16 233.083 2658.83 233.083C2637.84 233.083 2624.01 236.749 2617.35 244.079C2611.02 251.076 2607.85 260.405 2607.85 272.067H2709.81Z" fill="#27272A"/>
</svg>
